<?xml version="1.0" encoding="UTF-8" standalone="no"?>
<!DOCTYPE svg PUBLIC "-//W3C//DTD SVG 1.1//EN" "http://www.w3.org/Graphics/SVG/1.1/DTD/svg11.dtd">
<svg width="100%" height="100%" viewBox="0 0 73 87" version="1.1" xmlns="http://www.w3.org/2000/svg" xmlns:xlink="http://www.w3.org/1999/xlink" xml:space="preserve" xmlns:serif="http://www.serif.com/" style="fill-rule:evenodd;clip-rule:evenodd;stroke-linecap:round;stroke-linejoin:round;">
    <g transform="matrix(1,0,0,1,-3.19899,4.85514e-14)">
        <g id="LION-w-KEY" transform="matrix(0.229075,0,0,0.228461,-42.0059,-41.9294)">
            <g id="g12488-7-6-7-0" transform="matrix(6.6713,-1.04257,1.12031,7.16878,-82.5116,-703.689)">
                <path id="path12490-3-8-3-8" d="M30.545,138.81C30.68,138.939 31.147,139.286 31.179,139.735C31.208,140.153 31.026,140.599 30.511,140.585C30.386,140.584 30.305,140.534 30.23,140.458C30.165,140.388 30.14,140.256 30.118,140.151C30.113,139.936 30.264,139.799 30.377,139.651C30.551,139.422 30.51,138.897 30.545,138.81Z" style="fill:rgb(231,38,56);fill-rule:nonzero;"/>
                <path id="path12492-7-2-5-4" d="M28.377,137.73C28.407,137.889 28.362,138.434 28.178,138.681C28.078,138.916 28.012,139.083 27.991,139.148C27.978,139.506 28.353,139.958 28.714,139.681C29.736,138.748 28.543,137.809 28.377,137.73L28.377,137.73Z" style="fill:rgb(231,38,56);fill-rule:nonzero;"/>
                <path id="path12494-0-5-9-0" d="M28.849,141.09C28.83,141.039 28.96,140.744 29.001,140.574C29.037,140.429 29.129,140.272 29.179,140.168C29.246,140.028 29.363,139.985 29.473,139.925C29.551,139.882 29.74,139.96 29.86,139.94C29.966,139.922 30.131,140.158 30.188,140.192C30.286,140.248 30.398,140.333 30.529,140.396C30.657,140.458 30.82,140.532 30.923,140.592C31.049,140.665 31.153,140.777 31.216,140.884C31.291,141.01 31.273,141.138 31.274,141.285C31.276,141.424 31.229,141.576 31.194,141.72C31.15,141.899 31.06,141.956 30.949,142.08C30.83,142.214 30.707,142.234 30.553,142.318C30.523,142.335 30.493,142.351 30.463,142.367C30.363,142.422 30.32,142.458 30.252,142.483" style="fill:rgb(231,38,56);fill-rule:nonzero;"/>
                <path id="path12496-5-7-8-2" d="M41.056,146.76L36.446,144.902C35.307,144.442 33.977,143.977 33.242,143.622C32.806,143.412 31.738,142.888 31.142,142.616C30.446,142.302 29.262,141.873 29.008,140.936C28.888,140.495 29.41,140.102 28.987,139.389L28.651,139.52L28.365,139.217L28.035,138.885L28.154,138.715C27.63,138.282 26.719,138.479 26.611,139.05C26.205,138.783 25.878,138.692 25.393,138.866C24.937,139.029 24.726,139.31 24.401,139.651C24.212,139.848 24.072,140.133 24.064,140.422C24.031,140.711 24.106,141.04 24.263,141.276L24.452,141.263C24.219,141.429 24.033,141.597 23.927,141.721C23.537,142.177 23.481,143.164 24.073,143.623C24.278,143.831 24.642,143.946 24.903,143.989C25.556,144.088 26.187,144.767 26.777,144.368C26.982,144.641 26.741,144.225 27.071,144.343C27.054,144.365 27.037,144.386 27.026,144.407C27.499,145.078 28.124,145.575 28.84,145.969C29.475,146.318 30.514,146.768 30.437,147.206C30.385,147.506 29.506,148.332 29.24,148.214C30.147,148.767 31.592,147.903 31.895,147.962C31.321,148.525 31.206,149.598 31.579,150.177C31.877,149.688 32.603,149.204 33.05,149.083C33.38,149.48 33.715,149.281 34.121,149.378C33.808,149.687 33.493,151.083 33.807,151.495C34.107,150.98 35.103,150.017 35.33,150.089C35.838,150.255 38.925,151.549 39.223,151.489L41.557,148.194L41.056,146.76Z" style="fill:rgb(231,38,56);fill-rule:nonzero;"/>
                <path id="path12498-2-7-4-8" d="M22.698,142.95C22.797,142.914 22.94,142.913 23.344,142.906C23.557,142.902 24.115,143.022 24.373,142.96C24.717,142.878 25.028,142.257 24.706,141.991C23.874,141.311 22.74,142.787 22.698,142.95Z" style="fill:rgb(231,38,56);fill-rule:nonzero;"/>
                <path id="path12501-2-2-7-6" d="M23.606,139.02C23.826,139.104 24.231,139.423 24.46,139.821C24.604,140.075 25.053,140.266 25.298,140.041C25.777,139.608 25.563,139.129 25.082,138.902C24.842,138.789 24.277,138.752 24.001,138.833C23.935,138.848 23.723,138.944 23.606,139.02Z" style="fill:rgb(231,38,56);fill-rule:nonzero;"/>
                <path id="path12506-8-1-5-8" d="M27.509,141.88C26.528,141.804 25.975,141.171 25.305,140.991C24.933,140.962 24.673,141.022 24.453,141.256" style="fill:rgb(231,38,56);fill-rule:nonzero;"/>
            </g>
            <g transform="matrix(0.923987,-0.119315,0.0963776,0.746359,-185.597,48.9714)">
                <g id="KEY">
                    <g id="KEY1" serif:id="KEY">
                        <g id="g4661" transform="matrix(1,0,0,1,388.02,125.645)">
                            <path id="path4669" d="M51.208,456.586C39.57,476.936 22.262,477.445 7.786,487.865C7.458,488.176 7.139,488.495 6.828,488.823C6.495,489.18 6.175,489.547 5.864,489.92C5.622,490.211 5.386,490.507 5.157,490.809C4.872,491.183 4.6,491.565 4.338,491.953C4.129,492.262 3.927,492.575 3.732,492.893C3.464,493.329 3.211,493.772 2.971,494.222C2.831,494.483 2.695,494.747 2.564,495.014C2.303,495.548 2.058,496.091 1.835,496.642C1.744,496.867 1.657,497.094 1.574,497.322C1.352,497.919 1.147,498.523 0.971,499.136C0.921,499.315 0.873,499.496 0.827,499.676C0.656,500.32 0.509,500.97 0.389,501.628C0.364,501.772 0.34,501.916 0.317,502.061C0.203,502.76 0.117,503.465 0.061,504.175C0.051,504.305 0.041,504.435 0.033,504.565C0,505.085 -0.022,505.606 -0.023,506.129L-0.023,506.134C-0.022,506.954 0.019,507.769 0.099,508.578C0.099,508.58 0.099,508.581 0.099,508.583C0.111,508.681 0.123,508.78 0.136,508.878C0.216,509.597 0.32,510.31 0.46,511.016C0.495,511.179 0.531,511.343 0.569,511.506C0.705,512.128 0.858,512.745 1.039,513.353C1.115,513.601 1.195,513.848 1.278,514.094C1.453,514.618 1.639,515.138 1.847,515.65C1.964,515.935 2.087,516.219 2.214,516.5C2.42,516.957 2.637,517.409 2.869,517.853C3.031,518.163 3.2,518.47 3.375,518.773C3.602,519.166 3.84,519.553 4.088,519.934C4.431,520.458 4.794,520.97 5.175,521.467C5.28,521.605 5.382,521.744 5.489,521.88C5.983,522.5 6.504,523.096 7.053,523.667L7.086,523.703C7.39,524.023 7.701,524.334 8.021,524.637C8.38,524.973 8.75,525.297 9.128,525.611C8.751,525.297 8.38,524.975 8.021,524.637C27.1,536.871 49.597,547.527 51.208,567.823C54.552,545.255 76.687,536.353 94.63,524.403C94.583,524.449 94.532,524.491 94.485,524.536C94.864,524.182 95.232,523.817 95.589,523.441L95.591,523.442C95.931,523.079 96.255,522.705 96.571,522.325C96.801,522.048 97.025,521.767 97.243,521.481C97.542,521.088 97.828,520.687 98.103,520.278C98.28,520.019 98.451,519.756 98.618,519.491C98.909,519.021 99.181,518.542 99.441,518.056C99.588,517.781 99.729,517.504 99.866,517.223C100.119,516.705 100.356,516.18 100.572,515.647C100.664,515.418 100.753,515.188 100.838,514.956C101.066,514.344 101.276,513.724 101.457,513.095C101.499,512.941 101.539,512.787 101.578,512.633C101.753,511.976 101.905,511.313 102.027,510.642C102.053,510.497 102.077,510.351 102.1,510.205C102.215,509.507 102.299,508.804 102.355,508.095C102.365,507.964 102.375,507.833 102.383,507.702C102.416,507.181 102.439,506.659 102.439,506.134L102.439,506.131C102.438,505.314 102.397,504.5 102.318,503.694C102.317,503.693 102.318,503.693 102.318,503.692C102.306,503.588 102.293,503.485 102.28,503.381C102.201,502.672 102.097,501.968 101.96,501.272C101.922,501.093 101.883,500.914 101.841,500.736C101.706,500.12 101.556,499.507 101.375,498.905C101.3,498.662 101.222,498.42 101.139,498.18C100.967,497.661 100.784,497.145 100.578,496.639C100.456,496.34 100.327,496.044 100.193,495.75C99.991,495.302 99.78,494.859 99.552,494.423C99.386,494.106 99.214,493.793 99.035,493.483C98.815,493.102 98.584,492.727 98.344,492.358C98.001,491.832 97.638,491.32 97.257,490.822C97.144,490.674 97.035,490.524 96.919,490.378C96.423,489.754 95.897,489.154 95.344,488.58C95.033,488.252 94.714,487.932 94.386,487.622C94.03,487.29 93.664,486.968 93.289,486.658C93.662,486.969 94.03,487.288 94.386,487.622C79.965,477.332 61.661,474.81 51.208,456.586ZM25.339,480.77C25.88,480.77 26.415,480.793 26.947,480.826C26.412,480.79 25.876,480.772 25.339,480.77ZM25.339,480.77C24.524,480.772 23.71,480.812 22.899,480.892C23.707,480.812 24.521,480.771 25.339,480.77ZM77.075,480.77C77.588,480.771 78.098,480.792 78.607,480.823C78.097,480.79 77.586,480.772 77.075,480.77ZM77.075,480.77C76.23,480.77 75.385,480.812 74.544,480.897C75.377,480.814 76.221,480.77 77.075,480.77ZM27.307,480.853C28.076,480.912 28.836,481.005 29.585,481.131C28.83,481.004 28.07,480.911 27.307,480.853ZM79.069,480.856C79.765,480.912 80.456,480.997 81.141,481.109C80.454,480.996 79.763,480.912 79.069,480.856ZM74.542,480.897C70.327,481.32 66.285,482.793 62.785,485.181C66.198,482.848 70.209,481.326 74.542,480.897ZM22.567,480.933C21.873,481.008 21.183,481.112 20.497,481.245C21.18,481.111 21.872,481.01 22.567,480.933ZM29.736,481.158C30.535,481.297 31.32,481.473 32.091,481.686C31.315,481.472 30.529,481.296 29.736,481.158ZM81.588,481.184C82.24,481.303 82.886,481.45 83.525,481.619C82.885,481.449 82.239,481.304 81.588,481.184ZM19.899,481.378C19.299,481.508 18.703,481.661 18.114,481.834C18.702,481.658 19.298,481.511 19.899,481.378ZM32.169,481.708C32.966,481.93 33.747,482.19 34.51,482.486C33.743,482.189 32.961,481.929 32.169,481.708ZM84.082,481.767C84.687,481.942 85.282,482.143 85.872,482.362C85.283,482.142 84.686,481.943 84.082,481.767ZM17.396,482.067C16.87,482.239 16.35,482.429 15.836,482.636C16.349,482.428 16.87,482.241 17.396,482.067ZM34.557,482.504C35.325,482.804 36.074,483.14 36.803,483.511C36.071,483.139 35.321,482.803 34.557,482.504ZM86.596,482.64C87.118,482.853 87.633,483.086 88.141,483.333C87.634,483.085 87.118,482.854 86.596,482.64ZM14.969,483.009C14.524,483.209 14.085,483.422 13.652,483.647C14.085,483.421 14.524,483.209 14.969,483.009ZM36.889,483.554C37.599,483.918 38.289,484.313 38.958,484.74C38.287,484.313 37.597,483.917 36.889,483.554ZM89.033,483.789C89.465,484.021 89.891,484.263 90.31,484.52C89.891,484.264 89.466,484.02 89.033,483.789ZM12.685,484.178C12.304,484.398 11.929,484.629 11.56,484.869C11.929,484.629 12.304,484.398 12.685,484.178ZM39.121,484.845C39.765,485.263 40.39,485.711 40.992,486.184C40.389,485.71 39.765,485.263 39.121,484.845ZM91.257,485.131C91.645,485.393 92.026,485.665 92.4,485.95C92.027,485.666 91.645,485.393 91.257,485.131ZM62.692,485.247C62.04,485.696 61.408,486.177 60.8,486.686C61.408,486.177 62.039,485.698 62.692,485.247ZM41.196,486.344C41.787,486.818 42.357,487.318 42.903,487.844C42.357,487.318 41.787,486.818 41.196,486.344ZM60.635,486.829C60.055,487.322 59.499,487.841 58.966,488.384C59.498,487.841 60.056,487.323 60.635,486.829ZM43.077,488.009C43.625,488.546 44.146,489.108 44.644,489.692C44.147,489.108 43.624,488.546 43.077,488.009ZM58.769,488.59C58.25,489.131 57.755,489.694 57.286,490.278C57.755,489.693 58.251,489.131 58.769,488.59ZM44.788,489.858C45.304,490.474 45.792,491.115 46.249,491.779C45.793,491.116 45.305,490.475 44.788,489.858ZM57.122,490.489C56.65,491.09 56.204,491.712 55.788,492.353C56.205,491.71 56.65,491.09 57.122,490.489ZM46.283,491.828C48.622,495.245 50.147,499.261 50.577,503.601C50.153,499.379 48.677,495.331 46.283,491.828ZM55.685,492.515C55.257,493.186 54.86,493.877 54.497,494.586C54.861,493.875 55.258,493.185 55.685,492.515ZM54.453,494.672C54.08,495.408 53.742,496.162 53.442,496.931C53.743,496.159 54.081,495.405 54.453,494.672ZM53.433,496.954C53.133,497.728 52.87,498.516 52.647,499.315C52.871,498.511 53.134,497.724 53.433,496.954ZM52.63,499.378C52.416,500.157 52.239,500.946 52.1,501.742C52.24,500.94 52.417,500.152 52.63,499.378ZM52.074,501.887C51.945,502.655 51.852,503.428 51.794,504.204C51.853,503.421 51.945,502.649 52.074,501.887ZM50.577,503.603C50.659,504.434 50.703,505.278 50.703,506.131C50.703,505.287 50.661,504.443 50.577,503.603ZM51.772,504.49C51.735,505.036 51.715,505.583 51.713,506.129C51.713,505.578 51.737,505.033 51.772,504.49ZM50.703,506.134C50.703,506.687 50.679,507.234 50.644,507.778C50.682,507.231 50.701,506.682 50.703,506.134ZM51.713,506.134C51.713,506.979 51.755,507.824 51.839,508.665C52.264,512.891 53.742,516.942 56.139,520.448C53.797,517.029 52.27,513.009 51.839,508.665C51.757,507.833 51.713,506.988 51.713,506.134ZM50.622,508.064C50.563,508.847 50.471,509.621 50.342,510.383C50.471,509.614 50.565,508.841 50.622,508.064ZM50.317,510.523C50.176,511.335 49.995,512.133 49.778,512.917C49.997,512.128 50.177,511.329 50.317,510.523ZM49.778,512.92C49.553,513.735 49.286,514.534 48.983,515.314C49.288,514.53 49.553,513.731 49.778,512.92ZM48.974,515.339C48.671,516.115 48.333,516.872 47.958,517.609C48.334,516.869 48.673,516.112 48.974,515.339ZM47.927,517.668C47.556,518.392 47.153,519.095 46.717,519.776C47.154,519.093 47.558,518.39 47.927,517.668ZM46.641,519.895C46.215,520.552 45.76,521.189 45.277,521.803C45.761,521.188 46.216,520.552 46.641,519.895ZM56.152,520.467C56.615,521.142 57.111,521.794 57.638,522.422C57.112,521.795 56.616,521.143 56.152,520.467ZM45.142,521.975C44.658,522.579 44.148,523.16 43.611,523.717C44.148,523.16 44.659,522.578 45.142,521.975ZM57.757,522.559C58.259,523.15 58.788,523.718 59.342,524.261C58.788,523.718 58.259,523.15 57.757,522.559ZM43.478,523.858C42.924,524.425 42.342,524.964 41.736,525.478C42.342,524.965 42.923,524.425 43.478,523.858ZM59.505,524.415C60.059,524.949 60.637,525.458 61.238,525.939C60.637,525.457 60.059,524.948 59.505,524.415ZM41.642,525.561C41.008,526.094 40.347,526.597 39.661,527.067C35.585,529.861 30.654,531.498 25.339,531.498C24.812,531.498 24.288,531.475 23.764,531.442C24.289,531.476 24.814,531.495 25.339,531.497C30.451,531.497 35.443,529.953 39.661,527.067C40.346,526.598 41.007,526.095 41.642,525.561L41.642,525.561ZM92.864,525.951C92.623,526.144 92.375,526.329 92.127,526.512C92.376,526.33 92.622,526.143 92.864,525.951ZM61.402,526.067C62.019,526.553 62.658,527.01 63.317,527.437C62.657,527.01 62.018,526.552 61.402,526.067ZM9.982,526.293C10.376,526.593 10.778,526.88 11.189,527.156C10.78,526.88 10.376,526.594 9.982,526.293ZM90.878,527.386C90.488,527.64 90.092,527.882 89.689,528.114C90.092,527.882 90.489,527.639 90.878,527.386ZM63.432,527.511C64.118,527.95 64.826,528.355 65.552,528.726C64.824,528.354 64.116,527.949 63.432,527.511ZM12.016,527.695C12.484,527.984 12.962,528.258 13.449,528.515C12.963,528.257 12.485,527.985 12.016,527.695ZM88.821,528.592C88.359,528.834 87.889,529.059 87.414,529.272C87.89,529.06 88.359,528.833 88.821,528.592ZM65.588,528.745C66.336,529.126 67.103,529.469 67.885,529.773C68.672,530.08 69.475,530.347 70.289,530.573C69.47,530.346 68.669,530.078 67.885,529.773C67.099,529.467 66.333,529.124 65.588,528.745ZM14.214,528.908C14.763,529.178 15.322,529.428 15.889,529.658C15.322,529.429 14.764,529.177 14.214,528.908ZM86.599,529.625C86.076,529.838 85.544,530.028 85.008,530.206C85.545,530.03 86.075,529.836 86.599,529.625ZM16.496,529.889C17.109,530.12 17.731,530.326 18.36,530.509C17.73,530.328 17.109,530.118 16.496,529.889ZM84.31,530.433C83.705,530.614 83.09,530.766 82.472,530.901C83.09,530.768 83.703,530.612 84.31,530.433ZM70.292,530.573C71.091,530.794 71.901,530.975 72.717,531.117C71.895,530.974 71.086,530.793 70.292,530.573ZM18.857,530.64C19.512,530.815 20.175,530.964 20.842,531.086C20.173,530.964 19.512,530.815 18.857,530.64ZM81.939,531.018C81.226,531.159 80.505,531.264 79.778,531.343C80.503,531.266 81.224,531.158 81.939,531.018ZM72.802,531.133C73.579,531.264 74.361,531.36 75.147,531.418C74.355,531.359 73.572,531.263 72.802,531.133ZM21.258,531.156C21.962,531.272 22.671,531.358 23.383,531.414C22.67,531.358 21.96,531.271 21.258,531.156ZM79.539,531.373C78.724,531.454 77.902,531.497 77.075,531.498C76.521,531.498 75.974,531.474 75.428,531.439C75.977,531.476 76.526,531.495 77.075,531.497C77.898,531.496 78.72,531.454 79.539,531.373L79.539,531.373Z" style="fill:rgb(137,137,137);fill-rule:nonzero;stroke:rgb(137,137,137);stroke-width:2.67px;"/>
                            <g id="path4667" transform="matrix(1,0,0,1,-97.0812,44.3452)">
                                <path d="M136.816,460.732C136.816,468.888 130.105,475.599 121.949,475.599C113.794,475.599 107.083,468.888 107.083,460.732L107.083,460.732C107.083,452.577 113.794,445.866 121.949,445.866C130.105,445.866 136.816,452.577 136.816,460.732L136.816,460.732Z" style="fill:white;fill-rule:nonzero;stroke:rgb(137,137,137);stroke-width:2.4px;"/>
                            </g>
                            <g id="path46671" serif:id="path4667" transform="matrix(1,0,0,1,-45.401,44.3452)">
                                <path d="M136.816,460.732C136.816,468.888 130.105,475.599 121.949,475.599C113.794,475.599 107.083,468.888 107.083,460.732L107.083,460.732C107.083,452.577 113.794,445.866 121.949,445.866C130.105,445.866 136.816,452.577 136.816,460.732L136.816,460.732Z" style="fill:white;fill-rule:nonzero;stroke:rgb(137,137,137);stroke-width:2.4px;"/>
                            </g>
                        </g>
                        <path id="path4677" d="M431.084,286.159L431.084,593.933L447.373,593.933L447.373,286.159L431.084,286.159ZM385.362,287.284L385.362,308.906L398.391,308.906L398.391,304.291L407.366,304.291L407.366,308.906L416.148,308.906L416.148,318.936L407.366,318.936L407.366,323.552L398.391,323.552L398.391,318.936L385.362,318.936L385.362,340.559L398.011,340.559L398.011,330.814L406.986,330.814L406.986,340.559L418.864,340.559L418.864,327.648L430.72,327.648L430.72,300.197L418.864,300.197L418.864,287.284L406.986,287.284L406.986,297.03L398.011,297.03L398.011,287.284L385.362,287.284Z" style="fill:rgb(137,137,137);fill-rule:nonzero;stroke:rgb(137,137,137);stroke-width:1.95px;"/>
                    </g>
                </g>
            </g>
            <g id="RED-LION" transform="matrix(1.60334,0,0,1.60334,-789.616,-375.861)">
                <g id="g8017" transform="matrix(0.81,0,0,0.81,-1535.51,-70.6241)">
                    <path id="path4050-9-6-5-7-3-2" d="M2802,695.87C2781.42,698.394 2765.08,706.628 2763.76,723.757C2762.64,738.32 2773.91,741.415 2774.06,750.235C2774.16,756.012 2763.85,762.885 2752.18,776.25C2748.66,776.308 2742.79,780.451 2740.74,780.485C2739.21,780.513 2738.27,778.618 2735.74,778.66C2733.68,778.696 2730.82,780.378 2729.83,781.243C2728.6,780.456 2727.57,780.239 2726.07,780.264C2724.13,780.295 2719.8,786.19 2719.85,789.149C2719.93,793.328 2722.71,794.463 2724.66,793.114C2725.03,796.514 2730.22,798.001 2732.48,795.874L2751.01,795.177C2752.21,796.139 2762.42,801.356 2761.19,799.691C2760.16,798.303 2761.67,794.118 2764.19,793.92C2765.94,794.566 2766.31,794.716 2767.01,795.398C2768.12,795.623 2769.37,794.978 2769.93,794.085C2769.89,791.745 2770.32,789.241 2768.69,786.459C2771.3,782.358 2774.56,778.716 2778.94,776.615C2779.99,782.371 2784.53,784.716 2790.18,782.906C2787.82,781.228 2786.83,778.396 2786.48,774.618C2787.77,778.531 2793.04,779.451 2795.85,777.844C2792.44,775.3 2792,772.692 2790.34,769.613C2792.74,774.67 2797.09,776.263 2800.42,774.232C2795.48,768.799 2799.28,769.049 2794.16,765.181C2799.91,761.542 2806.87,758.052 2806.43,750.726C2804.66,747.839 2799.71,750.723 2798.95,747.416C2797.42,740.732 2802.94,735.799 2805.39,734.124C2809.94,731.024 2817.2,731.042 2821.87,730.965L2825.79,730.9L2825.08,692.421L2802,695.871L2802,695.87Z" style="fill:rgb(231,38,56);fill-rule:nonzero;"/>
                    <path id="path4266-9-3-3-7-2" d="M2735.2,788.41C2733.85,789.681 2731.89,791.377 2731.79,795.308C2731.71,799.031 2735.97,802.744 2740.01,802.677C2745.29,802.59 2751.49,799.48 2751.15,791.788" style="fill:rgb(231,38,56);fill-rule:nonzero;"/>
                    <path id="path4274-1-0-6-6-6" d="M2724.6,793.14C2724.25,789.564 2726.32,783.805 2729.8,781.217" style="fill:rgb(231,38,56);fill-rule:nonzero;"/>
                    <path id="path4354-7-3-5-7-9" d="M2739.8,792.24C2740.2,794.158 2742.35,794.869 2743.19,796.55C2742.72,800.503 2740.97,804.089 2737.88,806.214C2735.11,803.741 2734.07,798.588 2735.15,795.454C2736.43,794.117 2738.5,793.406 2739.8,792.24Z" style="fill:rgb(231,38,56);fill-rule:nonzero;"/>
                    <path id="path4370-2-2-4-1-9" d="M2764.4,792.3C2764.05,793.242 2760.6,794.96 2758.99,796.755C2761.17,800.312 2761.99,802.015 2763.31,805.426C2766,802.864 2768.18,798.491 2766.98,795.395C2766.01,794.44 2764.74,793.387 2764.4,792.3L2764.4,792.3Z" style="fill:rgb(231,38,56);fill-rule:nonzero;"/>
                    <path id="path4378-1-3-2-2-5" d="M2730.8,793.29C2730.33,796.34 2727.89,798.09 2726.48,800.004C2724.53,797.744 2724.37,794.313 2725.48,792.346C2727.24,790.615 2729.77,790.986 2730.8,793.29L2730.8,793.29Z" style="fill:rgb(231,38,56);fill-rule:nonzero;"/>
                    <path id="path4386-4-9-8-3-6" d="M2723.9,791.16C2722.5,793.62 2719.87,794.327 2719.19,796.255C2717.93,794.052 2718.46,790.299 2720.6,789.087C2722.21,788.59 2723.6,789.571 2723.9,791.16Z" style="fill:rgb(231,38,56);fill-rule:nonzero;"/>
                </g>
                <path id="path9062-2-1-5-8-5-4" d="M759.73,500.87C748.084,499.37 745.513,486.296 731.039,491.569C744.104,498.021 742.22,499.547 750.45,510.227L765.659,509.245L759.73,500.87L759.73,500.87Z" style="fill:rgb(231,38,56);fill-rule:nonzero;"/>
                <g id="g8067" transform="matrix(0.81,0,0,0.696028,-1532.78,8.92126)">
                    <path id="path4074-4-6-0-3-7-5" d="M2853.3,686.13C2837.93,672.518 2828.98,660.866 2829.31,646.558C2829.56,635.42 2831.33,622.74 2831.4,611.027L2787.77,610.035L2774.51,626.135C2768.62,644.759 2776.42,663.653 2788.37,675.367C2801.02,687.784 2819.5,699.067 2822.07,712.018C2824.62,724.83 2808.76,742.569 2819.93,758.79C2828.21,770.798 2850.31,766.861 2854.46,775.36C2858.51,781.594 2857.63,793.202 2851.83,802.513C2849.87,802.468 2846.39,804.884 2846.39,804.884C2846.39,804.884 2844.05,803.816 2841.37,803.755C2838.93,803.7 2836.28,804.731 2835.56,805.575C2834.62,803.734 2831.62,803.405 2830.19,803.49C2828.29,803.603 2822.58,804.567 2821.26,810.623C2821.06,818.774 2829.66,819.337 2830.06,815.751C2830.73,823.101 2840.43,823.84 2842.43,819.464C2843.18,824.476 2845.89,825.766 2849.38,826.373C2853.25,827.047 2858.83,823.856 2859.98,818.591C2861.5,822.037 2865.55,823.812 2870.15,822.199C2877.16,819.744 2876.52,813.19 2872.26,805.99C2873.73,803.615 2873.53,803.215 2875.93,796.05C2878.16,796.578 2886.49,796.758 2888.16,792.661C2885.08,792.669 2881.6,789.547 2879.26,788.322C2884.81,790.946 2887.3,788.896 2890.14,785.527C2887.39,785.074 2882.28,784.177 2879.9,781.158C2886.12,785.28 2889.4,783.559 2891.07,779.462C2889.73,779.43 2887.2,779.607 2885.64,778.636C2884.09,777.664 2881.88,773.947 2879.12,773.961C2879.37,770.59 2883.4,760.701 2878.74,757.318C2870.32,768.01 2856.1,749.938 2854.86,744.716C2853.73,734.026 2861.04,723.67 2858.79,712.674C2865.97,711.293 2863.89,695.512 2853.3,686.129L2853.3,686.13Z" style="fill:rgb(231,38,56);fill-rule:nonzero;"/>
                    <path id="path4258-9-4-9-9-7" d="M2842.4,819.47C2842.88,816.166 2842.8,815.578 2844.43,813.43C2845.58,811.922 2848.92,810.411 2849.96,809.966" style="fill:rgb(231,38,56);fill-rule:nonzero;"/>
                    <path id="path4270-0-5-8-9-0" d="M2859.9,818.59C2860.75,816.774 2860.24,814.686 2860.1,812.926" style="fill:rgb(231,38,56);fill-rule:nonzero;"/>
                    <path id="path4314-7-1-4-2-6" d="M2871.8,818.48C2872.15,823.336 2872,824.938 2868.27,828.901C2867.54,826.231 2866.04,820.975 2866.36,818.752C2867.7,816.655 2870.26,816.451 2871.8,818.48L2871.8,818.48Z" style="fill:rgb(231,38,56);fill-rule:nonzero;"/>
                    <path id="path4322-3-0-4-9-1" d="M2837.1,815.38C2837.11,816.15 2838.27,818.598 2838.24,820.117C2836.5,822.676 2835.14,825.746 2833.83,827.987C2831.45,825.521 2831.53,817.569 2833.4,815.793C2834.7,815.342 2835.96,815.23 2837.1,815.38L2837.1,815.38Z" style="fill:rgb(231,38,56);fill-rule:nonzero;"/>
                    <path id="path4330-8-6-9-5-3" d="M2826.6,812.3C2826.58,812.946 2827.47,815.04 2827.39,816.311C2825.84,818.397 2824.6,820.922 2823.42,822.756C2821.51,820.608 2821.85,813.943 2823.49,812.517C2824.59,812.185 2825.65,812.134 2826.6,812.3L2826.6,812.3Z" style="fill:rgb(231,38,56);fill-rule:nonzero;"/>
                    <path id="path4362-5-5-7-1-4" d="M2848.8,817.85C2849.79,819.398 2850.88,820.173 2851.54,821.631C2851,824.982 2849.39,827.976 2846.69,829.682C2844.41,827.485 2843.7,823.063 2844.74,820.431C2845.3,819.219 2846.35,817.916 2848.8,817.85Z" style="fill:rgb(231,38,56);fill-rule:nonzero;"/>
                </g>
                <g id="g12538-0-1-8-4" transform="matrix(4.18944,-0.429424,0.461446,4.50185,481.567,-215.395)">
                    <path id="path12540-4-3-9-3" d="M23.912,152.52C24.433,152.871 24.141,152.67 24.634,153.128C24.791,153.4 24.855,153.573 24.998,153.814C25.204,154.153 25.747,154.292 25.896,153.783C26.119,152.254 24.63,152.118 23.912,152.52L23.912,152.52Z" style="fill:rgb(231,38,56);fill-rule:nonzero;"/>
                    <path id="path12542-9-0-9-9" d="M39.215,147.98C39.215,147.98 36.364,149.951 34.574,151.08C33.15,151.979 31.725,152.725 30.247,153.616C29.533,154.046 28.403,154.847 27.447,154.435C26.996,154.241 26.881,153.324 26.005,153.224C25.906,153.806 24.935,153.978 24.786,153.478C24.081,153.665 23.888,154.861 24.301,155.356C23.956,155.469 23.835,155.555 23.603,155.76C22.762,156.502 22.948,157.961 23.807,158.661C24.117,158.915 24.48,158.972 24.753,159.064L24.779,158.892L24.926,159.603L25.415,160.046L25.889,160.351L25.769,160.552C26.002,160.707 26.357,160.71 26.612,160.691C26.92,160.644 27.172,160.572 27.377,160.359C27.883,159.822 28.003,159.626 28.047,158.802C28.231,158.797 28.418,158.794 28.607,158.782C28.801,158.764 28.936,158.702 29.078,158.591C29.085,158.622 29.092,158.652 29.103,158.677C29.196,158.894 29.345,159.053 29.397,159.129C29.479,159.235 29.851,159.455 29.978,159.467L29.939,159.192L30.408,159.253L31,159.186L30.943,159.483C31.141,159.284 31.4,159.295 31.57,158.948C31.702,158.688 31.738,158.316 31.739,158.029C31.744,157.764 32.723,157.3 33.202,157.126C34.35,156.708 34.575,157.477 34.489,158.122C35.155,157.698 35.741,156.805 35.232,155.808C36.019,155.917 36.39,156.345 36.3,157.352C37.238,156.819 37.336,155.668 37.017,154.786C38.176,155.263 37.969,155.592 37.955,156.424C39.571,155.398 38.879,154.766 39.292,153.833C39.458,153.458 39.912,153.041 40.621,152.418" style="fill:rgb(231,38,56);fill-rule:nonzero;"/>
                    <path id="path12544-6-9-0-2" d="M29.967,160.44C30.161,160.389 30.59,160.235 30.861,159.805C31.111,159.402 31.117,158.692 30.635,158.408C30.519,158.337 30.417,158.341 30.307,158.373C29.985,158.622 29.916,158.977 29.954,159.293C30.019,159.572 29.982,160.332 29.967,160.44L29.967,160.44Z" style="fill:rgb(231,38,56);fill-rule:nonzero;"/>
                    <path id="path12546-2-2-5-8" d="M25.24,161.75C25.273,161.634 25.424,161.234 25.679,160.854C25.813,160.653 26.121,160.546 26.235,160.264C26.388,159.887 26.051,159.109 25.617,159.224C24.009,159.614 24.949,161.538 25.24,161.75L25.24,161.75Z" style="fill:rgb(231,38,56);fill-rule:nonzero;"/>
                    <path id="path12548-9-7-6-3" d="M22.046,158.21C22.259,158.064 22.791,157.908 23.276,157.971C23.584,158.013 24.035,157.729 24.004,157.345C23.947,156.6 23.403,156.468 22.901,156.758C22.649,156.902 22.253,157.402 22.143,157.714C22.113,157.786 22.057,158.049 22.046,158.21Z" style="fill:rgb(231,38,56);fill-rule:nonzero;"/>
                    <path id="path12550-5-0-0-3" d="M24.272,155.34C24.351,155.35 24.553,155.334 24.676,155.374C24.775,155.405 24.899,155.395 24.981,155.421C25.151,155.474 25.324,155.529 25.49,155.582C25.592,155.614 25.687,155.671 25.775,155.699C25.891,155.735 26.007,155.788 26.124,155.818C26.211,155.841 26.326,155.826 26.416,155.83C26.524,155.833 26.628,155.854 26.726,155.806C26.848,155.747 27.185,155.718 27.317,155.724C27.503,155.731 27.71,155.635 27.881,155.552C27.891,155.547 27.902,155.552 27.913,155.553C27.988,155.556 28.062,155.455 28.1,155.436" style="fill:rgb(231,38,56);fill-rule:nonzero;"/>
                    <path id="path12556-2-5-3-0" d="M29.078,158.59C28.984,158.321 28.901,158.083 28.979,157.814C29.041,157.532 29.21,157.325 29.298,157.18" style="fill:rgb(231,38,56);fill-rule:nonzero;"/>
                </g>
                <g id="g8007" transform="matrix(0.81,0,0,0.81,-1553.69,-72.8208)">
                    <g transform="matrix(2.79277,0,0,2.79277,3141.52,-859.576)">
                        <g id="g5681-4-0-4">
                            <path id="path4857-5-5-4" d="M-91.845,560.06C-91.36,562.401 -89.821,565.185 -87.579,564.872C-83.034,564.239 -83.887,557.647 -85.828,551.179C-87.427,545.848 -89.584,543.2 -90.066,537.485C-90.373,533.843 -89.367,529.829 -88.127,526.054C-87.824,524.112 -84.674,524.992 -85.67,526.976C-86.719,529.989 -87.597,534.45 -87.454,537.484C-87.258,541.605 -84.742,545.979 -82.983,551.04C-81.723,553.516 -80.405,553.113 -79.971,553.09C-80.114,554.107 -81.373,554.896 -82.626,553.698C-82.384,554.82 -81.74,556.474 -79.612,556.364C-80.297,557.107 -81.055,557.614 -82.191,556.914C-82.036,557.864 -81.557,559.97 -79.251,560.538C-79.962,561.253 -81.073,561.707 -81.694,560.512C-81.437,562.967 -82.437,567.199 -86.753,567.979C-90.243,568.609 -92.415,566.151 -93.208,563.946" style="fill:rgb(231,38,56);fill-rule:nonzero;"/>
                        </g>
                    </g>
                    <g id="g5346-8-3-9-0" transform="matrix(-0.875753,-0.435183,0.425795,-0.895062,2940.82,1203.54)">
                        <path id="path5344-0-6-3-5" d="M295.24,516.04L295.444,517.093C294.354,519.533 291.587,524.683 291.577,530.005C291.564,536.893 296.425,544.624 297.493,551.339C298.003,554.544 296.716,557.23 295.161,559.706C295.658,560.023 298.111,559.7 299.326,559.52C298.528,563.593 297.669,564.576 295.837,565.937C297.557,566.509 299.377,566.921 302.452,565.324C302.363,566.763 301.975,568.601 301.059,571.142C304.873,568.961 306.864,565.967 308.146,562.664C309.56,559.02 309.566,556.672 310.918,552.958C313.305,546.402 313.76,541.996 312.728,534.737C311.661,526.779 306.485,519.919 302.908,516.332L302.761,515.221" style="fill:rgb(231,38,56);fill-rule:nonzero;"/>
                        <g id="g7256-8-5-8-0" transform="matrix(2.02106,0.714338,-0.714338,2.02106,-533.503,-1454.39)">
                            <path id="path7193-2-5-5-6-9-1-3-7" d="M673.22,740.96C673.332,744.077 674.628,746.53 676.862,749.102C680.487,753.208 678.985,752.586 679.4,756.333" style="fill:rgb(231,38,56);fill-rule:nonzero;"/>
                            <path id="path7195-4-8-4-4-1-78-3-6" d="M676,743.23C678.089,745.045 678.043,747.091 679.98,749.239C681.132,750.516 681.593,752.466 681.325,754.506C681.158,756.224 681.395,757.395 681.675,758.402" style="fill:rgb(231,38,56);fill-rule:nonzero;"/>
                            <path id="path7195_160-6-7-9-3-8-54-7-0" d="M673.69,738.77C673.906,739.01 675.509,740.282 676.521,741.405C681.632,745.238 681.344,748.56 681.363,752.59" style="fill:rgb(231,38,56);fill-rule:nonzero;"/>
                        </g>
                    </g>
                </g>
                <g id="g8148" transform="matrix(0.81,0,0,0.81,-1535.51,-81.5442)">
                    <path id="path4126-6-3-2-3-1" d="M2740.4,622.97C2758.76,626.256 2758.73,612.292 2766.28,609.285C2761.42,608.873 2753.37,613.88 2747.42,607.282C2757,604.133 2756.84,599.357 2763.23,597.909C2770.75,596.205 2776.1,599.754 2782.92,601.591C2775,597.681 2776.46,591.549 2776.71,586.023C2779.76,591.175 2784.75,593.508 2791.05,591.097C2797.55,588.607 2801.79,581.448 2814.07,576.013L2815.79,572.277L2832.23,543.524L2849.41,548.237C2860.24,551.213 2851.17,565.228 2864.25,572.081C2862.15,573.902 2856.28,574.993 2852.11,568.566C2854.49,574.38 2859.45,577.15 2861.03,582.476C2862.64,587.923 2859.62,595.715 2859.99,604.909C2859.45,602.39 2854.59,604.683 2851.81,597.353C2853.83,604.001 2854.37,610.775 2852.62,616.393C2850.61,622.847 2848.81,628.005 2848.68,633.745C2843.03,629.515 2841.1,625.614 2839.31,617.914C2840.62,622.601 2843.89,632.757 2839.01,638.998C2834.44,644.845 2832.96,648.375 2832.21,655.001C2825.54,653.677 2825.15,640.885 2823.77,634.193C2823.29,653.157 2813.65,652.118 2814.86,666.375C2802.77,664.287 2799.43,650.584 2800.32,638.027C2798.13,654.062 2783.2,655.335 2795.64,669.067C2774.98,667.321 2771.95,653.166 2777.12,639.075C2774.82,648.057 2765.1,654.326 2758.52,654.197C2766.78,639.143 2757.71,634.711 2765.86,624.951C2753.93,634.622 2746.43,631.002 2740.4,622.969L2740.4,622.97Z" style="fill:rgb(231,38,56);fill-rule:nonzero;"/>
                    <g id="g8114">
                        <path id="path4058-2-3-2-2-5" d="M2775.7,554.46C2774.6,556.38 2773.88,557.981 2773.82,560.741C2773.7,566.326 2777.91,569.359 2782.56,569.473C2791.06,569.68 2792.78,565.422 2800.12,565.602C2805.69,566.038 2809.21,571.89 2810.76,575.684C2807.06,577.322 2805.53,576.938 2802.74,576.293C2802.8,573.412 2800.95,570.412 2798.14,570.344C2794.71,570.26 2790.68,574.376 2781.56,574.153C2777.52,574.054 2770.37,571.099 2770.55,562.528C2770.65,557.909 2773.76,554.092 2775.7,554.461L2775.7,554.46Z" style="fill:rgb(231,38,56);fill-rule:nonzero;"/>
                        <path id="path4130-8-6-3-7-2" d="M2794.6,576.92C2793.38,576.671 2791.97,576.459 2791.41,576.018C2791.52,574.585 2791.92,573.095 2792.72,571.461C2792.99,573.387 2793.63,575.196 2794.6,576.92M2792.91,567.238C2791.76,565.857 2791,564.472 2790.57,563.108C2791.01,562.539 2792.35,561.979 2793.47,561.426C2792.92,563.346 2792.73,565.3 2792.91,567.238L2792.91,567.238Z" style="fill:rgb(231,38,56);fill-rule:nonzero;"/>
                        <path id="path4142-0-3-8-3-5" d="M2855.5,545.24C2854.32,550.3 2846.79,550.368 2841.35,548.078C2843.03,548.625 2846.79,554.876 2851.97,556.006C2849.73,558.445 2845.81,559.65 2840.98,558.779C2850.64,565.987 2846.3,573.652 2844.39,577.507C2844.86,572.102 2842.12,569.382 2838.72,567.203C2837.21,577.368 2842.85,581.944 2832.46,588.881C2836.07,583.206 2831.39,583.817 2831.31,575.925C2832.17,584.942 2822.14,584.222 2820.76,594.609C2815.23,586.334 2824.4,582.446 2822.92,575.309C2822.73,582.793 2815.29,580.518 2805.86,580.418C2798.3,580.337 2785.12,587.754 2789.61,575.373C2792.09,574.714 2799.16,575.562 2801.24,575.613C2812.84,576.828 2814.59,562.408 2805.06,560.216C2800.03,559.164 2795.74,562.852 2790.92,563.725C2785.19,564.762 2785.14,556.123 2785.56,553C2783.96,552.135 2784.4,550.551 2784.57,549.555C2785.74,548.825 2792.35,543.633 2796.9,543.3C2797.69,541.628 2799.95,539.994 2801.85,539.22C2804.87,537.984 2809.89,537.831 2811.56,537.047C2814.44,535.695 2815.51,533.951 2820.47,533.136C2825.63,532.229 2828.72,532.728 2832.24,533.827C2834.28,534.465 2835.8,534.88 2837.28,535.868C2840.19,537.822 2850.83,545.846 2855.5,545.241L2855.5,545.24Z" style="fill:rgb(231,38,56);fill-rule:nonzero;"/>
                        <path id="path4174-1-6-8-6-4" d="M2785.5,553C2788.16,552.69 2790.04,551.009 2792.53,549.238" style="fill:rgb(231,38,56);fill-rule:nonzero;"/>
                        <path id="path7455_159-2-9-1-0" d="M2822.9,540.53C2823.99,538.515 2825.32,536.249 2826.85,534.675C2829.35,532.297 2832.6,530.853 2834.84,531.601C2837.14,532.376 2838.82,536.184 2838.99,538.86C2839.06,541.468 2838.66,543.832 2837.17,546.296" style="fill:rgb(231,38,56);fill-rule:nonzero;"/>
                        <path id="path7469_234-7-7-2-0" d="M2803.2,542.4C2803.02,542.35 2802.83,542.325 2802.64,542.295C2801.54,543.051 2800.98,543.964 2800.85,545.037C2800.81,546.121 2801.15,547.091 2802.14,547.745C2803.43,548.652 2808.11,548.675 2811.12,546.492C2810.63,546.229 2803.74,542.543 2803.2,542.4L2803.2,542.4Z" style="fill:rgb(231,38,56);fill-rule:nonzero;"/>
                        <path id="path4178_235-5-2-7-4" d="M2834,535.08C2829.95,537.802 2829.26,541.293 2828.91,542.211C2828,538.959 2829.97,535.434 2834,535.08Z" style="fill:rgb(231,38,56);fill-rule:nonzero;"/>
                        <g id="path5265-7-5-1-9" transform="matrix(3.40294,0,0,1.74745,-6731.89,-406.232)">
                            <path d="M2805.2,545.2C2805.2,546.258 2804.53,547.215 2803.71,547.338C2802.89,547.46 2802.23,546.702 2802.23,545.644C2802.23,544.585 2802.89,543.629 2803.71,543.506C2804.53,543.383 2805.2,544.142 2805.2,545.2Z" style="fill:white;fill-rule:nonzero;"/>
                        </g>
                    </g>
                    <path id="path4122-3-1-5-3-1-3" d="M2782.9,601.59C2785.23,602.627 2789.06,603.201 2793.28,601.599C2788.69,610.305 2782.56,610.657 2776.01,612.08C2787.29,620.55 2799.49,615.248 2808.72,608.23C2803.93,614.763 2797.2,620.439 2796.53,625.998C2810.85,614.847 2817.38,630.355 2824.82,614.151" style="fill:rgb(231,38,56);fill-rule:nonzero;"/>
                </g>
            </g>
        </g>
    </g>
</svg>
