<?xml version="1.0" encoding="UTF-8" standalone="no"?>
<!DOCTYPE svg PUBLIC "-//W3C//DTD SVG 1.1//EN" "http://www.w3.org/Graphics/SVG/1.1/DTD/svg11.dtd">
<svg width="100%" height="100%" viewBox="0 0 1024 576" version="1.1" xmlns="http://www.w3.org/2000/svg" xmlns:xlink="http://www.w3.org/1999/xlink" xml:space="preserve" xmlns:serif="http://www.serif.com/" style="fill-rule:evenodd;clip-rule:evenodd;stroke-linejoin:round;stroke-miterlimit:2;">
    <g id="CURVES">
        <g transform="matrix(1.57538,0,0,1.39806,-241.034,-157.981)">
            <g id="WHITE-BACKGROUND" serif:id="WHITE BACKGROUND">
                <rect x="153" y="113" width="650" height="412" style="fill:white;"/>
            </g>
        </g>
        <g transform="matrix(0.990329,0,0,1.11229,2.24956e-13,18.9089)">
            <g id="LIGHTER">
                <path d="M1034,-17L-0,-17L-0,323C-0,323 370.267,188.481 517,283C745.207,430 1034,323 1034,323L1034,-17Z" style="fill:rgb(246,246,246);"/>
            </g>
        </g>
        <g transform="matrix(-0.990329,0,0,1.31583,1024,22.3692)">
            <g id="DARKER">
                <path d="M1034,-17L-0,-17L-0,323C-0,323 198.924,363.926 517,283C724.591,230.184 1034,323 1034,323L1034,-17Z" style="fill:rgb(235,235,235);fill-opacity:0.41;"/>
            </g>
        </g>
    </g>
</svg>
