<?xml version="1.0" encoding="UTF-8" standalone="no"?>
<svg
   xmlns:serif="http://www.serif.com/"
   xmlns:dc="http://purl.org/dc/elements/1.1/"
   xmlns:cc="http://creativecommons.org/ns#"
   xmlns:rdf="http://www.w3.org/1999/02/22-rdf-syntax-ns#"
   xmlns:svg="http://www.w3.org/2000/svg"
   xmlns="http://www.w3.org/2000/svg"
   xmlns:sodipodi="http://sodipodi.sourceforge.net/DTD/sodipodi-0.dtd"
   xmlns:inkscape="http://www.inkscape.org/namespaces/inkscape"
   width="146"
   height="52"
   viewBox="0 0 146 52"
   version="1.1"
   xml:space="preserve"
   style="clip-rule:evenodd;fill-rule:evenodd;stroke-linejoin:round;stroke-miterlimit:2"
   id="svg250"
   sodipodi:docname="title-a.svg"
   inkscape:version="1.0.2 (e86c870879, 2021-01-15)"><metadata
   id="metadata256"><rdf:RDF><cc:Work
       rdf:about=""><dc:format>image/svg+xml</dc:format><dc:type
         rdf:resource="http://purl.org/dc/dcmitype/StillImage" /><dc:title></dc:title></cc:Work></rdf:RDF></metadata><defs
   id="defs254" /><sodipodi:namedview
   pagecolor="#ffffff"
   bordercolor="#666666"
   borderopacity="1"
   objecttolerance="10"
   gridtolerance="10"
   guidetolerance="10"
   inkscape:pageopacity="0"
   inkscape:pageshadow="2"
   inkscape:window-width="1200"
   inkscape:window-height="974"
   id="namedview252"
   showgrid="false"
   inkscape:zoom="1.9174312"
   inkscape:cx="194.00957"
   inkscape:cy="26"
   inkscape:window-x="26"
   inkscape:window-y="23"
   inkscape:window-maximized="0"
   inkscape:current-layer="svg250"
   inkscape:document-rotation="0" />
    <g
   transform="translate(-0.00393659,-0.0155776)"
   id="g248">
        <g
   transform="matrix(1.16435,0,0,1.16435,-722.18,-164.161)"
   id="g246">
            <g
   id="g244">
                <g
   id="TITLE">
                    <g
   id="TITLE-TEXT"
   serif:id="TITLE TEXT">
                        <g
   transform="matrix(72.143,0,0,72.143,617,184)"
   id="g232">
                            <path
   d="m 0.117,-0.382 c 0,0.025 -0.003,0.04 -0.008,0.047 -0.005,0.006 -0.015,0.01 -0.03,0.01 -0.011,0 -0.02,-0.003 -0.026,-0.009 C 0.048,-0.34 0.045,-0.349 0.045,-0.361 v -0.007 c 0.001,-0.005 0.001,-0.011 0.001,-0.016 l 0.005,-0.161 c 0,-0.012 0.004,-0.021 0.01,-0.026 0.005,-0.005 0.015,-0.008 0.027,-0.008 h 0.424 c 0.013,0 0.022,0.003 0.028,0.008 0.005,0.005 0.009,0.014 0.009,0.026 l 0.005,0.161 c 0,0.006 0,0.012 0.001,0.017 v 0.007 c 0,0.012 -0.003,0.021 -0.009,0.026 -0.006,0.006 -0.016,0.009 -0.028,0.009 -0.013,0 -0.022,-0.004 -0.027,-0.01 C 0.486,-0.342 0.484,-0.357 0.483,-0.382 L 0.478,-0.509 h -0.14 v 0.44 h 0.094 c 0.014,0 0.024,0.003 0.03,0.008 0.006,0.006 0.009,0.014 0.009,0.026 0,0.011 -0.003,0.02 -0.009,0.026 C 0.457,-0.003 0.448,0 0.437,0 H 0.163 C 0.152,0 0.144,-0.003 0.138,-0.009 0.132,-0.015 0.129,-0.024 0.129,-0.035 c 0,-0.012 0.003,-0.021 0.009,-0.026 0.007,-0.005 0.018,-0.008 0.033,-0.008 h 0.091 v -0.44 h -0.14 z"
   style="fill-rule:nonzero"
   id="path230" />
                        </g>
                        <g
   transform="matrix(72.143,0,0,72.143,660.293,184)"
   id="g236">
                            <path
   d="m 0.564,-0.29 c 0,0.089 -0.025,0.162 -0.074,0.219 -0.05,0.058 -0.113,0.086 -0.19,0.086 -0.077,0 -0.14,-0.029 -0.189,-0.086 -0.05,-0.057 -0.075,-0.13 -0.075,-0.219 0,-0.09 0.025,-0.163 0.074,-0.22 0.049,-0.057 0.112,-0.085 0.19,-0.085 0.077,0 0.14,0.028 0.19,0.086 0.049,0.057 0.074,0.13 0.074,0.219 z M 0.3,-0.054 c 0.054,0 0.098,-0.021 0.129,-0.063 C 0.46,-0.159 0.476,-0.216 0.476,-0.29 0.476,-0.364 0.46,-0.421 0.429,-0.463 0.398,-0.505 0.354,-0.526 0.3,-0.526 c -0.055,0 -0.098,0.021 -0.129,0.062 -0.031,0.042 -0.047,0.1 -0.047,0.174 0,0.074 0.016,0.131 0.047,0.173 0.032,0.042 0.074,0.063 0.129,0.063 z"
   style="fill-rule:nonzero"
   id="path234" />
                        </g>
                        <g
   transform="matrix(72.143,0,0,72.143,703.586,184)"
   id="g240">
                            <path
   d="m 0.301,-0.24 0.105,-0.306 c 0.004,-0.012 0.011,-0.02 0.019,-0.025 0.008,-0.005 0.019,-0.008 0.034,-0.008 h 0.08 c 0.01,0 0.018,0.003 0.024,0.008 0.005,0.006 0.008,0.014 0.008,0.025 0,0.012 -0.004,0.021 -0.01,0.026 -0.007,0.004 -0.019,0.007 -0.037,0.007 H 0.516 l 0.014,0.444 h 0.011 c 0.021,0 0.035,0.003 0.042,0.007 0.008,0.005 0.011,0.014 0.011,0.027 0,0.011 -0.003,0.02 -0.009,0.026 C 0.58,-0.003 0.571,0 0.56,0 H 0.423 C 0.404,0 0.391,-0.003 0.384,-0.008 0.377,-0.013 0.374,-0.022 0.374,-0.035 c 0,-0.013 0.004,-0.022 0.012,-0.027 0.008,-0.004 0.024,-0.007 0.047,-0.007 h 0.021 l -0.01,-0.42 -0.097,0.281 C 0.342,-0.194 0.336,-0.185 0.329,-0.18 0.322,-0.174 0.311,-0.172 0.297,-0.172 0.283,-0.172 0.273,-0.175 0.266,-0.18 0.258,-0.185 0.253,-0.195 0.248,-0.208 L 0.15,-0.489 0.141,-0.069 h 0.033 c 0.019,0 0.033,0.003 0.04,0.008 0.008,0.005 0.012,0.014 0.012,0.026 0,0.013 -0.003,0.022 -0.01,0.027 C 0.209,-0.003 0.196,0 0.177,0 H 0.04 C 0.029,0 0.02,-0.003 0.014,-0.009 0.009,-0.015 0.006,-0.023 0.006,-0.035 c 0,-0.013 0.003,-0.022 0.011,-0.027 0.007,-0.004 0.021,-0.007 0.042,-0.007 H 0.07 L 0.084,-0.513 H 0.076 c -0.018,0 -0.03,-0.003 -0.037,-0.007 -0.007,-0.005 -0.01,-0.014 -0.01,-0.026 0,-0.011 0.003,-0.019 0.008,-0.025 0.006,-0.005 0.014,-0.008 0.024,-0.008 h 0.08 c 0.015,0 0.027,0.003 0.035,0.008 0.008,0.005 0.014,0.013 0.018,0.025 z"
   style="fill-rule:nonzero"
   id="path238" />
                        </g>
                    </g>
                </g>
            </g>
        </g>
    </g>
</svg>
