<?xml version="1.0" encoding="UTF-8" standalone="no"?>
<!DOCTYPE svg PUBLIC "-//W3C//DTD SVG 1.1//EN" "http://www.w3.org/Graphics/SVG/1.1/DTD/svg11.dtd">
<svg width="100%" height="100%" viewBox="0 0 545 52" version="1.1" xmlns="http://www.w3.org/2000/svg" xmlns:xlink="http://www.w3.org/1999/xlink" xml:space="preserve" xmlns:serif="http://www.serif.com/" style="fill-rule:evenodd;clip-rule:evenodd;stroke-linejoin:round;stroke-miterlimit:2;">
    <g transform="matrix(1,0,0,1,-0.00393659,-0.0155776)">
        <g transform="matrix(1.16435,0,0,1.16435,-722.18,-164.161)">
            <g>
                <g id="TITLE">
                    <g id="TITLE-TEXT" serif:id="TITLE TEXT">
                        <g transform="matrix(72.143,0,0,72.143,617,184)">
                            <path d="M0.117,-0.382C0.117,-0.357 0.114,-0.342 0.109,-0.335C0.104,-0.329 0.094,-0.325 0.079,-0.325C0.068,-0.325 0.059,-0.328 0.053,-0.334C0.048,-0.34 0.045,-0.349 0.045,-0.361L0.045,-0.368C0.046,-0.373 0.046,-0.379 0.046,-0.384L0.051,-0.545C0.051,-0.557 0.055,-0.566 0.061,-0.571C0.066,-0.576 0.076,-0.579 0.088,-0.579L0.512,-0.579C0.525,-0.579 0.534,-0.576 0.54,-0.571C0.545,-0.566 0.549,-0.557 0.549,-0.545L0.554,-0.384C0.554,-0.378 0.554,-0.372 0.555,-0.367L0.555,-0.36C0.555,-0.348 0.552,-0.339 0.546,-0.334C0.54,-0.328 0.53,-0.325 0.518,-0.325C0.505,-0.325 0.496,-0.329 0.491,-0.335C0.486,-0.342 0.484,-0.357 0.483,-0.382L0.478,-0.509L0.338,-0.509L0.338,-0.069L0.432,-0.069C0.446,-0.069 0.456,-0.066 0.462,-0.061C0.468,-0.055 0.471,-0.047 0.471,-0.035C0.471,-0.024 0.468,-0.015 0.462,-0.009C0.457,-0.003 0.448,-0 0.437,-0L0.163,-0C0.152,-0 0.144,-0.003 0.138,-0.009C0.132,-0.015 0.129,-0.024 0.129,-0.035C0.129,-0.047 0.132,-0.056 0.138,-0.061C0.145,-0.066 0.156,-0.069 0.171,-0.069L0.262,-0.069L0.262,-0.509L0.122,-0.509L0.117,-0.382Z" style="fill-rule:nonzero;"/>
                        </g>
                        <g transform="matrix(72.143,0,0,72.143,660.293,184)">
                            <path d="M0.564,-0.29C0.564,-0.201 0.539,-0.128 0.49,-0.071C0.44,-0.013 0.377,0.015 0.3,0.015C0.223,0.015 0.16,-0.014 0.111,-0.071C0.061,-0.128 0.036,-0.201 0.036,-0.29C0.036,-0.38 0.061,-0.453 0.11,-0.51C0.159,-0.567 0.222,-0.595 0.3,-0.595C0.377,-0.595 0.44,-0.567 0.49,-0.509C0.539,-0.452 0.564,-0.379 0.564,-0.29ZM0.3,-0.054C0.354,-0.054 0.398,-0.075 0.429,-0.117C0.46,-0.159 0.476,-0.216 0.476,-0.29C0.476,-0.364 0.46,-0.421 0.429,-0.463C0.398,-0.505 0.354,-0.526 0.3,-0.526C0.245,-0.526 0.202,-0.505 0.171,-0.464C0.14,-0.422 0.124,-0.364 0.124,-0.29C0.124,-0.216 0.14,-0.159 0.171,-0.117C0.203,-0.075 0.245,-0.054 0.3,-0.054Z" style="fill-rule:nonzero;"/>
                        </g>
                        <g transform="matrix(72.143,0,0,72.143,703.586,184)">
                            <path d="M0.301,-0.24L0.406,-0.546C0.41,-0.558 0.417,-0.566 0.425,-0.571C0.433,-0.576 0.444,-0.579 0.459,-0.579L0.539,-0.579C0.549,-0.579 0.557,-0.576 0.563,-0.571C0.568,-0.565 0.571,-0.557 0.571,-0.546C0.571,-0.534 0.567,-0.525 0.561,-0.52C0.554,-0.516 0.542,-0.513 0.524,-0.513L0.516,-0.513L0.53,-0.069L0.541,-0.069C0.562,-0.069 0.576,-0.066 0.583,-0.062C0.591,-0.057 0.594,-0.048 0.594,-0.035C0.594,-0.024 0.591,-0.015 0.585,-0.009C0.58,-0.003 0.571,-0 0.56,-0L0.423,-0C0.404,-0 0.391,-0.003 0.384,-0.008C0.377,-0.013 0.374,-0.022 0.374,-0.035C0.374,-0.048 0.378,-0.057 0.386,-0.062C0.394,-0.066 0.41,-0.069 0.433,-0.069L0.454,-0.069L0.444,-0.489L0.347,-0.208C0.342,-0.194 0.336,-0.185 0.329,-0.18C0.322,-0.174 0.311,-0.172 0.297,-0.172C0.283,-0.172 0.273,-0.175 0.266,-0.18C0.258,-0.185 0.253,-0.195 0.248,-0.208L0.15,-0.489L0.141,-0.069L0.174,-0.069C0.193,-0.069 0.207,-0.066 0.214,-0.061C0.222,-0.056 0.226,-0.047 0.226,-0.035C0.226,-0.022 0.223,-0.013 0.216,-0.008C0.209,-0.003 0.196,-0 0.177,-0L0.04,-0C0.029,-0 0.02,-0.003 0.014,-0.009C0.009,-0.015 0.006,-0.023 0.006,-0.035C0.006,-0.048 0.009,-0.057 0.017,-0.062C0.024,-0.066 0.038,-0.069 0.059,-0.069L0.07,-0.069L0.084,-0.513L0.076,-0.513C0.058,-0.513 0.046,-0.516 0.039,-0.52C0.032,-0.525 0.029,-0.534 0.029,-0.546C0.029,-0.557 0.032,-0.565 0.037,-0.571C0.043,-0.576 0.051,-0.579 0.061,-0.579L0.141,-0.579C0.156,-0.579 0.168,-0.576 0.176,-0.571C0.184,-0.566 0.19,-0.558 0.194,-0.546L0.301,-0.24Z" style="fill-rule:nonzero;"/>
                        </g>
                        <g transform="matrix(72.143,0,0,72.143,790.171,184)">
                            <path d="M0.196,-0.069L0.304,-0.069C0.365,-0.069 0.409,-0.077 0.434,-0.092C0.459,-0.108 0.471,-0.133 0.471,-0.169C0.471,-0.205 0.459,-0.231 0.435,-0.246C0.411,-0.261 0.369,-0.269 0.309,-0.269L0.196,-0.269L0.196,-0.069ZM0.196,-0.329L0.298,-0.329C0.344,-0.329 0.378,-0.336 0.401,-0.351C0.423,-0.366 0.434,-0.388 0.434,-0.419C0.434,-0.448 0.424,-0.47 0.404,-0.486C0.384,-0.501 0.355,-0.509 0.317,-0.509L0.196,-0.509L0.196,-0.329ZM0.336,-0L0.075,-0C0.064,-0 0.055,-0.003 0.05,-0.009C0.044,-0.015 0.041,-0.023 0.041,-0.035C0.041,-0.048 0.045,-0.057 0.052,-0.062C0.059,-0.066 0.076,-0.069 0.103,-0.069L0.119,-0.069L0.119,-0.509L0.103,-0.509C0.078,-0.509 0.062,-0.511 0.055,-0.516C0.048,-0.521 0.044,-0.531 0.044,-0.544C0.044,-0.555 0.047,-0.564 0.053,-0.57C0.059,-0.576 0.067,-0.579 0.078,-0.579L0.306,-0.579C0.375,-0.579 0.428,-0.566 0.464,-0.539C0.5,-0.512 0.518,-0.473 0.518,-0.422C0.518,-0.396 0.513,-0.374 0.501,-0.354C0.49,-0.335 0.474,-0.319 0.452,-0.307C0.487,-0.294 0.513,-0.277 0.531,-0.254C0.548,-0.231 0.556,-0.202 0.556,-0.167C0.556,-0.137 0.549,-0.11 0.534,-0.086C0.52,-0.062 0.499,-0.042 0.472,-0.026C0.456,-0.017 0.438,-0.01 0.419,-0.006C0.399,-0.002 0.372,-0 0.336,-0Z" style="fill-rule:nonzero;"/>
                        </g>
                        <g transform="matrix(72.143,0,0,72.143,833.464,184)">
                            <path d="M0.089,-0.509L0.081,-0.509C0.062,-0.509 0.048,-0.511 0.041,-0.517C0.033,-0.522 0.03,-0.531 0.03,-0.544C0.03,-0.556 0.033,-0.565 0.039,-0.571C0.045,-0.576 0.055,-0.579 0.067,-0.579L0.189,-0.579C0.215,-0.579 0.232,-0.577 0.239,-0.572C0.246,-0.566 0.25,-0.557 0.25,-0.544C0.25,-0.531 0.246,-0.522 0.237,-0.517C0.229,-0.511 0.213,-0.509 0.189,-0.509L0.168,-0.509L0.168,-0.241C0.168,-0.205 0.17,-0.179 0.173,-0.162C0.177,-0.146 0.182,-0.131 0.19,-0.117C0.201,-0.097 0.217,-0.082 0.238,-0.071C0.258,-0.06 0.28,-0.054 0.305,-0.054C0.352,-0.054 0.386,-0.068 0.407,-0.096C0.428,-0.124 0.439,-0.169 0.439,-0.232L0.439,-0.509L0.413,-0.509C0.388,-0.509 0.371,-0.511 0.362,-0.516C0.353,-0.521 0.349,-0.531 0.349,-0.544C0.349,-0.557 0.353,-0.566 0.359,-0.572C0.366,-0.577 0.38,-0.579 0.402,-0.579L0.533,-0.579C0.545,-0.579 0.554,-0.576 0.56,-0.57C0.566,-0.564 0.569,-0.556 0.569,-0.544C0.569,-0.531 0.565,-0.522 0.558,-0.517C0.551,-0.511 0.538,-0.509 0.519,-0.509L0.512,-0.509L0.512,-0.221C0.512,-0.142 0.495,-0.083 0.459,-0.043C0.424,-0.004 0.371,0.016 0.3,0.016C0.236,0.016 0.184,-0.004 0.146,-0.043C0.108,-0.083 0.089,-0.136 0.089,-0.203L0.089,-0.509Z" style="fill-rule:nonzero;"/>
                        </g>
                        <g transform="matrix(72.143,0,0,72.143,876.757,184)">
                            <path d="M0.191,-0.513L0.191,-0.316L0.292,-0.316C0.338,-0.316 0.372,-0.324 0.395,-0.341C0.418,-0.357 0.429,-0.382 0.429,-0.414C0.429,-0.447 0.418,-0.472 0.396,-0.488C0.373,-0.505 0.34,-0.513 0.295,-0.513L0.191,-0.513ZM0.191,-0.069L0.224,-0.069C0.243,-0.069 0.256,-0.066 0.264,-0.061C0.272,-0.056 0.276,-0.047 0.276,-0.035C0.276,-0.022 0.272,-0.013 0.266,-0.008C0.259,-0.003 0.246,-0 0.227,-0L0.063,-0C0.052,-0 0.043,-0.003 0.038,-0.009C0.032,-0.015 0.029,-0.024 0.029,-0.035C0.029,-0.047 0.032,-0.056 0.039,-0.061C0.045,-0.066 0.056,-0.069 0.071,-0.069L0.115,-0.069L0.115,-0.513L0.087,-0.513C0.063,-0.513 0.047,-0.515 0.04,-0.52C0.032,-0.525 0.029,-0.533 0.029,-0.546C0.029,-0.557 0.032,-0.565 0.037,-0.571C0.043,-0.576 0.052,-0.579 0.063,-0.579L0.269,-0.579C0.319,-0.579 0.356,-0.577 0.381,-0.572C0.405,-0.567 0.426,-0.559 0.443,-0.548C0.465,-0.533 0.482,-0.514 0.494,-0.49C0.507,-0.466 0.513,-0.44 0.513,-0.412C0.513,-0.375 0.502,-0.343 0.479,-0.316C0.456,-0.289 0.424,-0.27 0.383,-0.26C0.391,-0.255 0.399,-0.249 0.406,-0.243C0.412,-0.236 0.419,-0.228 0.425,-0.219L0.523,-0.069L0.539,-0.069C0.557,-0.069 0.57,-0.066 0.577,-0.061C0.583,-0.056 0.587,-0.048 0.587,-0.035C0.587,-0.024 0.584,-0.015 0.578,-0.009C0.573,-0.003 0.564,-0 0.553,-0L0.498,-0C0.482,-0 0.466,-0.012 0.451,-0.035C0.449,-0.037 0.448,-0.039 0.447,-0.04L0.353,-0.182C0.334,-0.211 0.318,-0.23 0.305,-0.238C0.293,-0.247 0.276,-0.251 0.256,-0.251L0.191,-0.251L0.191,-0.069Z" style="fill-rule:nonzero;"/>
                        </g>
                        <g transform="matrix(72.143,0,0,72.143,920.05,184)">
                            <path d="M0.191,-0.513L0.191,-0.316L0.292,-0.316C0.338,-0.316 0.372,-0.324 0.395,-0.341C0.418,-0.357 0.429,-0.382 0.429,-0.414C0.429,-0.447 0.418,-0.472 0.396,-0.488C0.373,-0.505 0.34,-0.513 0.295,-0.513L0.191,-0.513ZM0.191,-0.069L0.224,-0.069C0.243,-0.069 0.256,-0.066 0.264,-0.061C0.272,-0.056 0.276,-0.047 0.276,-0.035C0.276,-0.022 0.272,-0.013 0.266,-0.008C0.259,-0.003 0.246,-0 0.227,-0L0.063,-0C0.052,-0 0.043,-0.003 0.038,-0.009C0.032,-0.015 0.029,-0.024 0.029,-0.035C0.029,-0.047 0.032,-0.056 0.039,-0.061C0.045,-0.066 0.056,-0.069 0.071,-0.069L0.115,-0.069L0.115,-0.513L0.087,-0.513C0.063,-0.513 0.047,-0.515 0.04,-0.52C0.032,-0.525 0.029,-0.533 0.029,-0.546C0.029,-0.557 0.032,-0.565 0.037,-0.571C0.043,-0.576 0.052,-0.579 0.063,-0.579L0.269,-0.579C0.319,-0.579 0.356,-0.577 0.381,-0.572C0.405,-0.567 0.426,-0.559 0.443,-0.548C0.465,-0.533 0.482,-0.514 0.494,-0.49C0.507,-0.466 0.513,-0.44 0.513,-0.412C0.513,-0.375 0.502,-0.343 0.479,-0.316C0.456,-0.289 0.424,-0.27 0.383,-0.26C0.391,-0.255 0.399,-0.249 0.406,-0.243C0.412,-0.236 0.419,-0.228 0.425,-0.219L0.523,-0.069L0.539,-0.069C0.557,-0.069 0.57,-0.066 0.577,-0.061C0.583,-0.056 0.587,-0.048 0.587,-0.035C0.587,-0.024 0.584,-0.015 0.578,-0.009C0.573,-0.003 0.564,-0 0.553,-0L0.498,-0C0.482,-0 0.466,-0.012 0.451,-0.035C0.449,-0.037 0.448,-0.039 0.447,-0.04L0.353,-0.182C0.334,-0.211 0.318,-0.23 0.305,-0.238C0.293,-0.247 0.276,-0.251 0.256,-0.251L0.191,-0.251L0.191,-0.069Z" style="fill-rule:nonzero;"/>
                        </g>
                        <g transform="matrix(72.143,0,0,72.143,963.343,184)">
                            <path d="M0.564,-0.29C0.564,-0.201 0.539,-0.128 0.49,-0.071C0.44,-0.013 0.377,0.015 0.3,0.015C0.223,0.015 0.16,-0.014 0.111,-0.071C0.061,-0.128 0.036,-0.201 0.036,-0.29C0.036,-0.38 0.061,-0.453 0.11,-0.51C0.159,-0.567 0.222,-0.595 0.3,-0.595C0.377,-0.595 0.44,-0.567 0.49,-0.509C0.539,-0.452 0.564,-0.379 0.564,-0.29ZM0.3,-0.054C0.354,-0.054 0.398,-0.075 0.429,-0.117C0.46,-0.159 0.476,-0.216 0.476,-0.29C0.476,-0.364 0.46,-0.421 0.429,-0.463C0.398,-0.505 0.354,-0.526 0.3,-0.526C0.245,-0.526 0.202,-0.505 0.171,-0.464C0.14,-0.422 0.124,-0.364 0.124,-0.29C0.124,-0.216 0.14,-0.159 0.171,-0.117C0.203,-0.075 0.245,-0.054 0.3,-0.054Z" style="fill-rule:nonzero;"/>
                        </g>
                        <g transform="matrix(72.143,0,0,72.143,1006.64,184)">
                            <path d="M0.174,-0.125L0.258,-0.417C0.261,-0.427 0.264,-0.434 0.268,-0.437C0.272,-0.44 0.278,-0.441 0.288,-0.441L0.31,-0.441C0.319,-0.441 0.326,-0.439 0.33,-0.437C0.334,-0.434 0.338,-0.428 0.341,-0.419L0.436,-0.125L0.484,-0.513L0.407,-0.513C0.392,-0.513 0.381,-0.516 0.374,-0.521C0.367,-0.526 0.364,-0.535 0.364,-0.546C0.364,-0.558 0.367,-0.567 0.374,-0.572C0.38,-0.577 0.393,-0.579 0.411,-0.579L0.569,-0.579C0.576,-0.579 0.582,-0.576 0.588,-0.57C0.593,-0.563 0.596,-0.555 0.596,-0.546C0.596,-0.535 0.593,-0.527 0.587,-0.521C0.581,-0.516 0.571,-0.513 0.559,-0.513L0.553,-0.513L0.484,-0.025C0.483,-0.015 0.481,-0.008 0.478,-0.005C0.476,-0.002 0.471,-0 0.465,-0L0.43,-0C0.423,-0 0.417,-0.001 0.413,-0.004C0.409,-0.007 0.406,-0.013 0.403,-0.021L0.297,-0.357L0.203,-0.02C0.201,-0.012 0.198,-0.007 0.194,-0.004C0.191,-0.001 0.185,-0 0.177,-0L0.14,-0C0.134,-0 0.129,-0.002 0.126,-0.005C0.123,-0.008 0.12,-0.015 0.119,-0.026L0.045,-0.513L0.039,-0.513C0.026,-0.513 0.017,-0.516 0.01,-0.521C0.004,-0.527 0.001,-0.535 0.001,-0.546C0.001,-0.556 0.004,-0.564 0.009,-0.57C0.014,-0.576 0.02,-0.579 0.028,-0.579L0.186,-0.579C0.204,-0.579 0.216,-0.577 0.223,-0.572C0.23,-0.567 0.233,-0.558 0.233,-0.546C0.233,-0.535 0.229,-0.526 0.222,-0.521C0.215,-0.516 0.205,-0.513 0.19,-0.513L0.121,-0.513L0.174,-0.125Z" style="fill-rule:nonzero;"/>
                        </g>
                        <g transform="matrix(72.143,0,0,72.143,1049.93,184)">
                            <path d="M0.157,-0.017C0.156,-0.002 0.152,0.008 0.146,0.013C0.14,0.019 0.131,0.022 0.118,0.022C0.104,0.022 0.094,0.018 0.088,0.01C0.081,0.002 0.077,-0.011 0.076,-0.029L0.07,-0.142L0.07,-0.151C0.07,-0.167 0.073,-0.178 0.079,-0.184C0.085,-0.191 0.095,-0.194 0.109,-0.194C0.128,-0.194 0.142,-0.18 0.151,-0.152C0.155,-0.138 0.159,-0.127 0.162,-0.12C0.174,-0.097 0.191,-0.08 0.216,-0.067C0.241,-0.055 0.27,-0.049 0.304,-0.049C0.346,-0.049 0.38,-0.059 0.406,-0.079C0.433,-0.098 0.446,-0.124 0.446,-0.155C0.446,-0.181 0.438,-0.201 0.422,-0.217C0.406,-0.232 0.382,-0.243 0.351,-0.247L0.279,-0.257C0.211,-0.266 0.162,-0.284 0.131,-0.31C0.1,-0.336 0.085,-0.373 0.085,-0.42C0.085,-0.47 0.106,-0.512 0.147,-0.545C0.188,-0.579 0.239,-0.596 0.301,-0.596C0.319,-0.596 0.338,-0.594 0.357,-0.589C0.377,-0.584 0.4,-0.577 0.425,-0.567C0.425,-0.576 0.428,-0.583 0.433,-0.586C0.437,-0.59 0.445,-0.592 0.456,-0.592C0.47,-0.592 0.48,-0.59 0.486,-0.585C0.491,-0.581 0.495,-0.571 0.496,-0.555L0.503,-0.453L0.503,-0.448C0.503,-0.437 0.5,-0.428 0.493,-0.422C0.487,-0.415 0.478,-0.412 0.466,-0.412C0.449,-0.412 0.435,-0.424 0.426,-0.448C0.421,-0.462 0.417,-0.472 0.412,-0.479C0.401,-0.495 0.386,-0.508 0.366,-0.517C0.346,-0.525 0.323,-0.53 0.297,-0.53C0.257,-0.53 0.226,-0.52 0.201,-0.5C0.176,-0.481 0.164,-0.455 0.164,-0.424C0.164,-0.399 0.173,-0.38 0.192,-0.365C0.21,-0.351 0.238,-0.341 0.276,-0.336L0.354,-0.326C0.411,-0.319 0.453,-0.301 0.482,-0.274C0.511,-0.247 0.525,-0.21 0.525,-0.164C0.525,-0.109 0.505,-0.066 0.464,-0.032C0.423,0.001 0.369,0.017 0.301,0.017C0.277,0.017 0.254,0.014 0.231,0.009C0.208,0.003 0.183,-0.005 0.157,-0.017Z" style="fill-rule:nonzero;"/>
                        </g>
                    </g>
                </g>
            </g>
        </g>
    </g>
</svg>
