<?xml version="1.0" encoding="UTF-8" standalone="no"?>
<svg
   xmlns:serif="http://www.serif.com/"
   xmlns:dc="http://purl.org/dc/elements/1.1/"
   xmlns:cc="http://creativecommons.org/ns#"
   xmlns:rdf="http://www.w3.org/1999/02/22-rdf-syntax-ns#"
   xmlns:svg="http://www.w3.org/2000/svg"
   xmlns="http://www.w3.org/2000/svg"
   xmlns:sodipodi="http://sodipodi.sourceforge.net/DTD/sodipodi-0.dtd"
   xmlns:inkscape="http://www.inkscape.org/namespaces/inkscape"
   width="343"
   height="52"
   viewBox="0 0 343 52"
   version="1.1"
   xml:space="preserve"
   style="clip-rule:evenodd;fill-rule:evenodd;stroke-linejoin:round;stroke-miterlimit:2"
   id="svg520"
   sodipodi:docname="title-b.svg"
   inkscape:version="1.0.2 (e86c870879, 2021-01-15)"><metadata
   id="metadata526"><rdf:RDF><cc:Work
       rdf:about=""><dc:format>image/svg+xml</dc:format><dc:type
         rdf:resource="http://purl.org/dc/dcmitype/StillImage" /><dc:title></dc:title></cc:Work></rdf:RDF></metadata><defs
   id="defs524" /><sodipodi:namedview
   pagecolor="#ffffff"
   bordercolor="#666666"
   borderopacity="1"
   objecttolerance="10"
   gridtolerance="10"
   guidetolerance="10"
   inkscape:pageopacity="0"
   inkscape:pageshadow="2"
   inkscape:window-width="1920"
   inkscape:window-height="1136"
   id="namedview522"
   showgrid="false"
   inkscape:zoom="5.1310345"
   inkscape:cx="431.2627"
   inkscape:cy="26"
   inkscape:window-x="0"
   inkscape:window-y="0"
   inkscape:window-maximized="1"
   inkscape:current-layer="svg520" />
    <g
   transform="translate(-201.29959,-0.0155776)"
   id="g518">
        <g
   transform="matrix(1.16435,0,0,1.16435,-722.18,-164.161)"
   id="g516">
            <g
   id="g514">
                <g
   id="TITLE">
                    <g
   id="TITLE-TEXT"
   serif:id="TITLE TEXT">
                        <g
   transform="matrix(72.143,0,0,72.143,790.171,184)"
   id="g486">
                            <path
   d="m 0.196,-0.069 h 0.108 c 0.061,0 0.105,-0.008 0.13,-0.023 0.025,-0.016 0.037,-0.041 0.037,-0.077 0,-0.036 -0.012,-0.062 -0.036,-0.077 C 0.411,-0.261 0.369,-0.269 0.309,-0.269 H 0.196 Z m 0,-0.26 h 0.102 c 0.046,0 0.08,-0.007 0.103,-0.022 0.022,-0.015 0.033,-0.037 0.033,-0.068 0,-0.029 -0.01,-0.051 -0.03,-0.067 C 0.384,-0.501 0.355,-0.509 0.317,-0.509 H 0.196 Z M 0.336,0 H 0.075 C 0.064,0 0.055,-0.003 0.05,-0.009 0.044,-0.015 0.041,-0.023 0.041,-0.035 c 0,-0.013 0.004,-0.022 0.011,-0.027 0.007,-0.004 0.024,-0.007 0.051,-0.007 h 0.016 v -0.44 H 0.103 c -0.025,0 -0.041,-0.002 -0.048,-0.007 -0.007,-0.005 -0.011,-0.015 -0.011,-0.028 0,-0.011 0.003,-0.02 0.009,-0.026 0.006,-0.006 0.014,-0.009 0.025,-0.009 h 0.228 c 0.069,0 0.122,0.013 0.158,0.04 0.036,0.027 0.054,0.066 0.054,0.117 0,0.026 -0.005,0.048 -0.017,0.068 -0.011,0.019 -0.027,0.035 -0.049,0.047 0.035,0.013 0.061,0.03 0.079,0.053 0.017,0.023 0.025,0.052 0.025,0.087 0,0.03 -0.007,0.057 -0.022,0.081 C 0.52,-0.062 0.499,-0.042 0.472,-0.026 0.456,-0.017 0.438,-0.01 0.419,-0.006 0.399,-0.002 0.372,0 0.336,0 Z"
   style="fill-rule:nonzero"
   id="path484" />
                        </g>
                        <g
   transform="matrix(72.143,0,0,72.143,833.464,184)"
   id="g490">
                            <path
   d="M 0.089,-0.509 H 0.081 c -0.019,0 -0.033,-0.002 -0.04,-0.008 C 0.033,-0.522 0.03,-0.531 0.03,-0.544 c 0,-0.012 0.003,-0.021 0.009,-0.027 0.006,-0.005 0.016,-0.008 0.028,-0.008 h 0.122 c 0.026,0 0.043,0.002 0.05,0.007 0.007,0.006 0.011,0.015 0.011,0.028 0,0.013 -0.004,0.022 -0.013,0.027 -0.008,0.006 -0.024,0.008 -0.048,0.008 H 0.168 v 0.268 c 0,0.036 0.002,0.062 0.005,0.079 0.004,0.016 0.009,0.031 0.017,0.045 0.011,0.02 0.027,0.035 0.048,0.046 0.02,0.011 0.042,0.017 0.067,0.017 0.047,0 0.081,-0.014 0.102,-0.042 0.021,-0.028 0.032,-0.073 0.032,-0.136 V -0.509 H 0.413 c -0.025,0 -0.042,-0.002 -0.051,-0.007 -0.009,-0.005 -0.013,-0.015 -0.013,-0.028 0,-0.013 0.004,-0.022 0.01,-0.028 0.007,-0.005 0.021,-0.007 0.043,-0.007 h 0.131 c 0.012,0 0.021,0.003 0.027,0.009 0.006,0.006 0.009,0.014 0.009,0.026 0,0.013 -0.004,0.022 -0.011,0.027 -0.007,0.006 -0.02,0.008 -0.039,0.008 H 0.512 v 0.288 c 0,0.079 -0.017,0.138 -0.053,0.178 C 0.424,-0.004 0.371,0.016 0.3,0.016 0.236,0.016 0.184,-0.004 0.146,-0.043 0.108,-0.083 0.089,-0.136 0.089,-0.203 Z"
   style="fill-rule:nonzero"
   id="path488" />
                        </g>
                        <g
   transform="matrix(72.143,0,0,72.143,876.757,184)"
   id="g494">
                            <path
   d="m 0.191,-0.513 v 0.197 h 0.101 c 0.046,0 0.08,-0.008 0.103,-0.025 0.023,-0.016 0.034,-0.041 0.034,-0.073 0,-0.033 -0.011,-0.058 -0.033,-0.074 C 0.373,-0.505 0.34,-0.513 0.295,-0.513 Z m 0,0.444 h 0.033 c 0.019,0 0.032,0.003 0.04,0.008 0.008,0.005 0.012,0.014 0.012,0.026 0,0.013 -0.004,0.022 -0.01,0.027 C 0.259,-0.003 0.246,0 0.227,0 H 0.063 C 0.052,0 0.043,-0.003 0.038,-0.009 0.032,-0.015 0.029,-0.024 0.029,-0.035 c 0,-0.012 0.003,-0.021 0.01,-0.026 0.006,-0.005 0.017,-0.008 0.032,-0.008 H 0.115 V -0.513 H 0.087 c -0.024,0 -0.04,-0.002 -0.047,-0.007 -0.008,-0.005 -0.011,-0.013 -0.011,-0.026 0,-0.011 0.003,-0.019 0.008,-0.025 0.006,-0.005 0.015,-0.008 0.026,-0.008 h 0.206 c 0.05,0 0.087,0.002 0.112,0.007 0.024,0.005 0.045,0.013 0.062,0.024 0.022,0.015 0.039,0.034 0.051,0.058 0.013,0.024 0.019,0.05 0.019,0.078 0,0.037 -0.011,0.069 -0.034,0.096 -0.023,0.027 -0.055,0.046 -0.096,0.056 0.008,0.005 0.016,0.011 0.023,0.017 0.006,0.007 0.013,0.015 0.019,0.024 l 0.098,0.15 h 0.016 c 0.018,0 0.031,0.003 0.038,0.008 0.006,0.005 0.01,0.013 0.01,0.026 0,0.011 -0.003,0.02 -0.009,0.026 C 0.573,-0.003 0.564,0 0.553,0 H 0.498 C 0.482,0 0.466,-0.012 0.451,-0.035 0.449,-0.037 0.448,-0.039 0.447,-0.04 L 0.353,-0.182 C 0.334,-0.211 0.318,-0.23 0.305,-0.238 0.293,-0.247 0.276,-0.251 0.256,-0.251 H 0.191 Z"
   style="fill-rule:nonzero"
   id="path492" />
                        </g>
                        <g
   transform="matrix(72.143,0,0,72.143,920.05,184)"
   id="g498">
                            <path
   d="m 0.191,-0.513 v 0.197 h 0.101 c 0.046,0 0.08,-0.008 0.103,-0.025 0.023,-0.016 0.034,-0.041 0.034,-0.073 0,-0.033 -0.011,-0.058 -0.033,-0.074 C 0.373,-0.505 0.34,-0.513 0.295,-0.513 Z m 0,0.444 h 0.033 c 0.019,0 0.032,0.003 0.04,0.008 0.008,0.005 0.012,0.014 0.012,0.026 0,0.013 -0.004,0.022 -0.01,0.027 C 0.259,-0.003 0.246,0 0.227,0 H 0.063 C 0.052,0 0.043,-0.003 0.038,-0.009 0.032,-0.015 0.029,-0.024 0.029,-0.035 c 0,-0.012 0.003,-0.021 0.01,-0.026 0.006,-0.005 0.017,-0.008 0.032,-0.008 H 0.115 V -0.513 H 0.087 c -0.024,0 -0.04,-0.002 -0.047,-0.007 -0.008,-0.005 -0.011,-0.013 -0.011,-0.026 0,-0.011 0.003,-0.019 0.008,-0.025 0.006,-0.005 0.015,-0.008 0.026,-0.008 h 0.206 c 0.05,0 0.087,0.002 0.112,0.007 0.024,0.005 0.045,0.013 0.062,0.024 0.022,0.015 0.039,0.034 0.051,0.058 0.013,0.024 0.019,0.05 0.019,0.078 0,0.037 -0.011,0.069 -0.034,0.096 -0.023,0.027 -0.055,0.046 -0.096,0.056 0.008,0.005 0.016,0.011 0.023,0.017 0.006,0.007 0.013,0.015 0.019,0.024 l 0.098,0.15 h 0.016 c 0.018,0 0.031,0.003 0.038,0.008 0.006,0.005 0.01,0.013 0.01,0.026 0,0.011 -0.003,0.02 -0.009,0.026 C 0.573,-0.003 0.564,0 0.553,0 H 0.498 C 0.482,0 0.466,-0.012 0.451,-0.035 0.449,-0.037 0.448,-0.039 0.447,-0.04 L 0.353,-0.182 C 0.334,-0.211 0.318,-0.23 0.305,-0.238 0.293,-0.247 0.276,-0.251 0.256,-0.251 H 0.191 Z"
   style="fill-rule:nonzero"
   id="path496" />
                        </g>
                        <g
   transform="matrix(72.143,0,0,72.143,963.343,184)"
   id="g502">
                            <path
   d="m 0.564,-0.29 c 0,0.089 -0.025,0.162 -0.074,0.219 -0.05,0.058 -0.113,0.086 -0.19,0.086 -0.077,0 -0.14,-0.029 -0.189,-0.086 -0.05,-0.057 -0.075,-0.13 -0.075,-0.219 0,-0.09 0.025,-0.163 0.074,-0.22 0.049,-0.057 0.112,-0.085 0.19,-0.085 0.077,0 0.14,0.028 0.19,0.086 0.049,0.057 0.074,0.13 0.074,0.219 z M 0.3,-0.054 c 0.054,0 0.098,-0.021 0.129,-0.063 C 0.46,-0.159 0.476,-0.216 0.476,-0.29 0.476,-0.364 0.46,-0.421 0.429,-0.463 0.398,-0.505 0.354,-0.526 0.3,-0.526 c -0.055,0 -0.098,0.021 -0.129,0.062 -0.031,0.042 -0.047,0.1 -0.047,0.174 0,0.074 0.016,0.131 0.047,0.173 0.032,0.042 0.074,0.063 0.129,0.063 z"
   style="fill-rule:nonzero"
   id="path500" />
                        </g>
                        <g
   transform="matrix(72.143,0,0,72.143,1006.64,184)"
   id="g506">
                            <path
   d="m 0.174,-0.125 0.084,-0.292 c 0.003,-0.01 0.006,-0.017 0.01,-0.02 0.004,-0.003 0.01,-0.004 0.02,-0.004 H 0.31 c 0.009,0 0.016,0.002 0.02,0.004 0.004,0.003 0.008,0.009 0.011,0.018 l 0.095,0.294 0.048,-0.388 H 0.407 c -0.015,0 -0.026,-0.003 -0.033,-0.008 -0.007,-0.005 -0.01,-0.014 -0.01,-0.025 0,-0.012 0.003,-0.021 0.01,-0.026 0.006,-0.005 0.019,-0.007 0.037,-0.007 h 0.158 c 0.007,0 0.013,0.003 0.019,0.009 0.005,0.007 0.008,0.015 0.008,0.024 0,0.011 -0.003,0.019 -0.009,0.025 -0.006,0.005 -0.016,0.008 -0.028,0.008 H 0.553 L 0.484,-0.025 C 0.483,-0.015 0.481,-0.008 0.478,-0.005 0.476,-0.002 0.471,0 0.465,0 H 0.43 C 0.423,0 0.417,-0.001 0.413,-0.004 0.409,-0.007 0.406,-0.013 0.403,-0.021 L 0.297,-0.357 0.203,-0.02 C 0.201,-0.012 0.198,-0.007 0.194,-0.004 0.191,-0.001 0.185,0 0.177,0 H 0.14 C 0.134,0 0.129,-0.002 0.126,-0.005 0.123,-0.008 0.12,-0.015 0.119,-0.026 L 0.045,-0.513 H 0.039 c -0.013,0 -0.022,-0.003 -0.029,-0.008 -0.006,-0.006 -0.009,-0.014 -0.009,-0.025 0,-0.01 0.003,-0.018 0.008,-0.024 0.005,-0.006 0.011,-0.009 0.019,-0.009 h 0.158 c 0.018,0 0.03,0.002 0.037,0.007 0.007,0.005 0.01,0.014 0.01,0.026 0,0.011 -0.004,0.02 -0.011,0.025 -0.007,0.005 -0.017,0.008 -0.032,0.008 H 0.121 Z"
   style="fill-rule:nonzero"
   id="path504" />
                        </g>
                        <g
   transform="matrix(72.143,0,0,72.143,1049.93,184)"
   id="g510">
                            <path
   d="M 0.157,-0.017 C 0.156,-0.002 0.152,0.008 0.146,0.013 0.14,0.019 0.131,0.022 0.118,0.022 0.104,0.022 0.094,0.018 0.088,0.01 0.081,0.002 0.077,-0.011 0.076,-0.029 L 0.07,-0.142 v -0.009 c 0,-0.016 0.003,-0.027 0.009,-0.033 0.006,-0.007 0.016,-0.01 0.03,-0.01 0.019,0 0.033,0.014 0.042,0.042 0.004,0.014 0.008,0.025 0.011,0.032 0.012,0.023 0.029,0.04 0.054,0.053 0.025,0.012 0.054,0.018 0.088,0.018 0.042,0 0.076,-0.01 0.102,-0.03 0.027,-0.019 0.04,-0.045 0.04,-0.076 0,-0.026 -0.008,-0.046 -0.024,-0.062 -0.016,-0.015 -0.04,-0.026 -0.071,-0.03 L 0.279,-0.257 C 0.211,-0.266 0.162,-0.284 0.131,-0.31 0.1,-0.336 0.085,-0.373 0.085,-0.42 c 0,-0.05 0.021,-0.092 0.062,-0.125 0.041,-0.034 0.092,-0.051 0.154,-0.051 0.018,0 0.037,0.002 0.056,0.007 0.02,0.005 0.043,0.012 0.068,0.022 0,-0.009 0.003,-0.016 0.008,-0.019 0.004,-0.004 0.012,-0.006 0.023,-0.006 0.014,0 0.024,0.002 0.03,0.007 0.005,0.004 0.009,0.014 0.01,0.03 l 0.007,0.102 v 0.005 c 0,0.011 -0.003,0.02 -0.01,0.026 -0.006,0.007 -0.015,0.01 -0.027,0.01 -0.017,0 -0.031,-0.012 -0.04,-0.036 C 0.421,-0.462 0.417,-0.472 0.412,-0.479 0.401,-0.495 0.386,-0.508 0.366,-0.517 0.346,-0.525 0.323,-0.53 0.297,-0.53 c -0.04,0 -0.071,0.01 -0.096,0.03 -0.025,0.019 -0.037,0.045 -0.037,0.076 0,0.025 0.009,0.044 0.028,0.059 0.018,0.014 0.046,0.024 0.084,0.029 l 0.078,0.01 c 0.057,0.007 0.099,0.025 0.128,0.052 0.029,0.027 0.043,0.064 0.043,0.11 0,0.055 -0.02,0.098 -0.061,0.132 C 0.423,0.001 0.369,0.017 0.301,0.017 0.277,0.017 0.254,0.014 0.231,0.009 0.208,0.003 0.183,-0.005 0.157,-0.017 Z"
   style="fill-rule:nonzero"
   id="path508" />
                        </g>
                    </g>
                </g>
            </g>
        </g>
    </g>
</svg>
